<svg width="814" height="277" viewBox="0 0 814 277" fill="none" xmlns="http://www.w3.org/2000/svg">
<g clip-path="url(#clip0_0_1)">
<path d="M128.45 90.7C128.45 86.96 127.937 84.21 126.91 82.45C125.883 80.6167 123.83 79.7 120.75 79.7H119.65V76.4H149.35C158.59 76.4 166.29 77.6833 172.45 80.25C178.683 82.8167 181.8 87.95 181.8 95.65C181.8 99.0233 180.443 102.213 177.73 105.22C175.09 108.153 171.35 110.243 166.51 111.49C178.903 112.737 185.1 118.53 185.1 128.87C185.1 136.497 182.057 141.777 175.97 144.71C169.883 147.57 162.11 149 152.65 149H128.45V90.7ZM151 109.29C155.767 109.29 159.507 108.19 162.22 105.99C165.007 103.717 166.4 100.087 166.4 95.1C166.4 90.04 164.75 86.41 161.45 84.21C158.223 81.9367 154.19 80.8 149.35 80.8C147.37 80.8 145.83 80.9467 144.73 81.24L142.75 81.57V109.29H151ZM151 144.6C157.087 144.6 161.707 143.28 164.86 140.64C168.087 138 169.7 134.26 169.7 129.42C169.7 119.3 163.467 114.24 151 114.24H142.75V143.5C143.557 143.793 144.29 143.977 144.95 144.05C146.563 144.417 148.397 144.6 150.45 144.6H151ZM229.161 151.2C222.048 151.2 215.704 149.513 210.131 146.14C204.631 142.767 200.378 138.147 197.371 132.28C194.364 126.413 192.861 119.887 192.861 112.7C192.861 105.513 194.364 98.9867 197.371 93.12C200.378 87.2533 204.631 82.6333 210.131 79.26C215.704 75.8867 222.048 74.2 229.161 74.2C236.274 74.2 242.581 75.8867 248.081 79.26C253.581 82.6333 257.834 87.2533 260.841 93.12C263.848 98.9867 265.351 105.513 265.351 112.7C265.351 119.887 263.848 126.413 260.841 132.28C257.834 138.147 253.581 142.767 248.081 146.14C242.581 149.513 236.274 151.2 229.161 151.2ZM229.161 146.25C235.834 146.25 241.004 143.353 244.671 137.56C248.338 131.693 250.171 123.407 250.171 112.7C250.171 101.993 248.338 93.7433 244.671 87.95C241.004 82.0833 235.834 79.15 229.161 79.15C222.488 79.15 217.318 82.0833 213.651 87.95C210.058 93.7433 208.261 101.993 208.261 112.7C208.261 123.407 210.058 131.693 213.651 137.56C217.318 143.353 222.488 146.25 229.161 146.25ZM309.835 151.2C302.722 151.2 296.378 149.513 290.805 146.14C285.305 142.767 281.052 138.147 278.045 132.28C275.038 126.413 273.535 119.887 273.535 112.7C273.535 105.513 275.038 98.9867 278.045 93.12C281.052 87.2533 285.305 82.6333 290.805 79.26C296.378 75.8867 302.722 74.2 309.835 74.2C316.948 74.2 323.255 75.8867 328.755 79.26C334.255 82.6333 338.508 87.2533 341.515 93.12C344.522 98.9867 346.025 105.513 346.025 112.7C346.025 119.887 344.522 126.413 341.515 132.28C338.508 138.147 334.255 142.767 328.755 146.14C323.255 149.513 316.948 151.2 309.835 151.2ZM309.835 146.25C316.508 146.25 321.678 143.353 325.345 137.56C329.012 131.693 330.845 123.407 330.845 112.7C330.845 101.993 329.012 93.7433 325.345 87.95C321.678 82.0833 316.508 79.15 309.835 79.15C303.162 79.15 297.992 82.0833 294.325 87.95C290.732 93.7433 288.935 101.993 288.935 112.7C288.935 123.407 290.732 131.693 294.325 137.56C297.992 143.353 303.162 146.25 309.835 146.25ZM418.904 150.1C414.284 150.1 409.847 149.183 405.594 147.35C401.414 145.443 396.904 141.96 392.064 136.9L374.354 118.42V149H360.054L359.944 90.7C359.944 86.96 359.431 84.21 358.404 82.45C357.377 80.6167 355.324 79.7 352.244 79.7H351.144V76.4H364.344C366.911 76.4 368.891 76.84 370.284 77.72C371.751 78.6 372.777 80.0667 373.364 82.12C374.024 84.1733 374.354 87.0333 374.354 90.7V111.6L393.384 87.95C396.097 84.43 398.994 81.6433 402.074 79.59C405.227 77.4633 408.821 76.4 412.854 76.4H420.554V80.25C416.007 80.25 412.084 80.8367 408.784 82.01C405.557 83.11 402.771 85.1267 400.424 88.06L384.034 108.3L409.444 134.7C412.157 137.707 415.201 140.347 418.574 142.62C422.021 144.82 424.807 146.067 426.934 146.36V149C424.734 149.733 422.057 150.1 418.904 150.1ZM531.233 90.7C531.233 86.96 530.72 84.21 529.693 82.45C528.667 80.6167 526.613 79.7 523.533 79.7H522.433V76.4H535.633C538.273 76.4 540.29 76.84 541.683 77.72C543.077 78.6 544.067 80.0667 544.653 82.12C545.24 84.1 545.533 86.96 545.533 90.7V108.85H575.233V76.4H589.533V134.7C589.533 138.44 590.047 141.227 591.073 143.06C592.1 144.82 594.153 145.7 597.233 145.7H598.333V149H585.133C582.493 149 580.477 148.597 579.083 147.79C577.69 146.91 576.7 145.48 576.113 143.5C575.527 141.447 575.233 138.513 575.233 134.7V113.8H545.533V149H531.233V90.7ZM639.679 151.2C632.565 151.2 626.222 149.513 620.649 146.14C615.149 142.767 610.895 138.147 607.889 132.28C604.882 126.413 603.379 119.887 603.379 112.7C603.379 105.513 604.882 98.9867 607.889 93.12C610.895 87.2533 615.149 82.6333 620.649 79.26C626.222 75.8867 632.565 74.2 639.679 74.2C646.792 74.2 653.099 75.8867 658.599 79.26C664.099 82.6333 668.352 87.2533 671.359 93.12C674.365 98.9867 675.869 105.513 675.869 112.7C675.869 119.887 674.365 126.413 671.359 132.28C668.352 138.147 664.099 142.767 658.599 146.14C653.099 149.513 646.792 151.2 639.679 151.2ZM639.679 146.25C646.352 146.25 651.522 143.353 655.189 137.56C658.855 131.693 660.689 123.407 660.689 112.7C660.689 101.993 658.855 93.7433 655.189 87.95C651.522 82.0833 646.352 79.15 639.679 79.15C633.005 79.15 627.835 82.0833 624.169 87.95C620.575 93.7433 618.779 101.993 618.779 112.7C618.779 123.407 620.575 131.693 624.169 137.56C627.835 143.353 633.005 146.25 639.679 146.25ZM698.572 149C695.932 149 693.916 148.597 692.522 147.79C691.129 146.91 690.139 145.48 689.552 143.5C688.966 141.447 688.672 138.513 688.672 134.7V76.4H702.972V134.7C702.972 138.44 703.486 141.227 704.512 143.06C705.539 144.82 707.592 145.7 710.672 145.7H711.772V149H698.572ZM751.526 103.905L730.936 72.15C728.422 68.09 725.329 64.5133 721.656 61.42C717.982 58.3267 714.599 56.5867 711.506 56.2V53.3H727.456C732.386 53.3 736.832 54.8467 740.796 57.94C744.856 61.0333 748.287 64.8033 751.091 69.25L763.706 88.68L791.691 53.3H801.116L767.911 95.205L790.676 130.15C793.189 134.21 796.282 137.787 799.956 140.88C803.629 143.973 807.012 145.713 810.106 146.1V149H794.156C789.226 149 784.731 147.453 780.671 144.36C776.707 141.267 773.324 137.497 770.521 133.05L755.876 110.43L725.281 149H715.856L751.526 103.905Z" fill="#161049"/>
<path d="M477.144 151.8C467.53 151.8 459.224 149.747 452.224 145.64C445.317 141.44 440.044 135.747 436.404 128.56C432.764 121.373 430.944 113.253 430.944 104.2C430.944 94.8667 432.95 86.3733 436.964 78.72C440.977 70.9733 446.484 64.9067 453.484 60.52C460.577 56.04 468.464 53.8 477.144 53.8C485.357 53.8 492.217 54.8733 497.724 57.02C503.23 59.0733 507.43 61.78 510.324 65.14C512.004 67.2867 513.03 69.9467 513.404 73.12C513.777 76.2933 513.964 80.7267 513.964 86.42H509.764C507.99 77.8333 504.724 71.3 499.964 66.82C495.204 62.34 488.997 60.1 481.344 60.1C471.824 60.1 464.31 63.46 458.804 70.18C453.297 76.9 450.544 88.24 450.544 104.2C450.544 116.053 453.064 125.9 458.104 133.74C463.144 141.58 470.89 145.5 481.344 145.5C487.877 145.5 493.85 143.773 499.264 140.32C504.77 136.867 509.204 131.92 512.564 125.48L517.464 129.26C512.984 137.1 507.57 142.84 501.224 146.48C494.877 150.027 486.85 151.8 477.144 151.8Z" fill="#357C82"/>
<path d="M193.059 190.3C193.059 188.43 192.803 187.055 192.289 186.175C191.776 185.258 190.749 184.8 189.209 184.8H188.109V183.7H202.409C205.929 183.7 209.101 184.452 211.924 185.955C214.748 187.458 216.159 190.373 216.159 194.7C216.159 197.56 215.426 199.76 213.959 201.3C212.493 202.84 210.843 203.867 209.009 204.38C207.213 204.893 205.563 205.15 204.059 205.15H198.009V220H193.059V190.3ZM202.134 203.225C203.308 203.225 204.554 202.932 205.874 202.345C207.194 201.722 208.313 200.75 209.229 199.43C210.183 198.11 210.659 196.442 210.659 194.425C210.659 192.408 210.183 190.74 209.229 189.42C208.313 188.1 207.194 187.147 205.874 186.56C204.554 185.937 203.308 185.625 202.134 185.625C200.851 185.625 199.476 185.808 198.009 186.175V202.675C199.476 203.042 200.851 203.225 202.134 203.225ZM221.976 200.75C221.976 198.88 221.72 197.505 221.206 196.625C220.693 195.708 219.666 195.25 218.126 195.25H217.576V194.15H221.976C223.37 194.15 224.415 194.352 225.111 194.755C225.845 195.122 226.358 195.745 226.651 196.625H226.926C227.586 195.782 228.466 195.067 229.566 194.48C230.703 193.893 232.023 193.6 233.526 193.6C234.993 193.6 236.093 193.875 236.826 194.425C237.45 194.902 238.091 195.727 238.751 196.9L236.551 198.55C236.148 198 235.561 197.597 234.791 197.34C234.021 197.047 233.141 196.9 232.151 196.9C231.051 196.9 230.043 197.157 229.126 197.67C228.21 198.147 227.476 198.807 226.926 199.65V220H221.976V200.75ZM252.978 220.55C250.485 220.55 248.376 219.963 246.653 218.79C244.93 217.58 243.628 215.967 242.748 213.95C241.868 211.897 241.428 209.605 241.428 207.075C241.428 204.582 241.868 202.308 242.748 200.255C243.628 198.202 244.893 196.588 246.543 195.415C248.23 194.205 250.191 193.6 252.428 193.6C256.131 193.6 258.881 194.645 260.678 196.735C262.511 198.788 263.428 201.777 263.428 205.7L263.318 207.9H246.653C246.653 210.98 247.313 213.492 248.633 215.435C249.953 217.378 251.768 218.35 254.078 218.35C255.801 218.35 257.25 217.983 258.423 217.25C259.633 216.517 260.751 215.417 261.778 213.95L262.878 214.775C261.668 216.792 260.256 218.258 258.643 219.175C257.03 220.092 255.141 220.55 252.978 220.55ZM258.203 205.7C258.203 202.473 257.726 200.017 256.773 198.33C255.82 196.643 254.371 195.8 252.428 195.8C251.328 195.8 250.338 196.24 249.458 197.12C248.578 197.963 247.881 199.137 247.368 200.64C246.891 202.143 246.653 203.83 246.653 205.7H258.203ZM270.594 200.75C270.594 198.88 270.337 197.505 269.824 196.625C269.31 195.708 268.284 195.25 266.744 195.25H265.644V194.15H270.594C271.95 194.15 272.977 194.333 273.674 194.7C274.407 195.067 274.939 195.617 275.269 196.35H275.544C276.314 195.58 277.304 194.938 278.514 194.425C279.76 193.875 281.154 193.6 282.694 193.6C284.234 193.6 285.554 193.893 286.654 194.48C287.754 195.03 288.634 196.02 289.294 197.45C290.247 196.24 291.457 195.305 292.924 194.645C294.427 193.948 295.967 193.6 297.544 193.6C299.89 193.6 301.76 194.333 303.154 195.8C304.547 197.267 305.244 199.833 305.244 203.5V220H300.294V203.5C300.294 200.86 299.927 198.972 299.194 197.835C298.46 196.662 297.36 196.075 295.894 196.075C294.867 196.075 293.785 196.46 292.649 197.23C291.512 197.963 290.669 198.77 290.119 199.65C290.302 200.2 290.394 201.483 290.394 203.5V220H285.444V203.5C285.444 200.86 285.077 198.972 284.344 197.835C283.61 196.662 282.51 196.075 281.044 196.075C279.1 196.075 277.267 197.047 275.544 198.99V220H270.594V200.75ZM315.867 190.85C315.024 190.85 314.291 190.502 313.667 189.805C313.081 189.108 312.787 188.283 312.787 187.33C312.787 186.56 313.007 185.955 313.447 185.515C313.924 185.075 314.547 184.855 315.317 184.855C316.161 184.855 316.876 185.203 317.462 185.9C318.086 186.597 318.397 187.422 318.397 188.375C318.397 189.145 318.159 189.75 317.682 190.19C317.242 190.63 316.637 190.85 315.867 190.85ZM313.777 200.75C313.777 198.88 313.521 197.505 313.007 196.625C312.494 195.708 311.467 195.25 309.927 195.25H308.827V194.15H313.777C315.134 194.15 316.142 194.333 316.802 194.7C317.499 195.03 317.994 195.653 318.287 196.57C318.581 197.487 318.727 198.88 318.727 200.75V220H313.777V200.75ZM335.892 220.55C333.142 220.55 330.887 219.817 329.127 218.35C327.404 216.883 326.542 214.317 326.542 210.65V200.75C326.542 198.88 326.286 197.505 325.772 196.625C325.259 195.708 324.232 195.25 322.692 195.25H322.142V194.15H326.542C327.899 194.15 328.907 194.333 329.567 194.7C330.264 195.03 330.759 195.653 331.052 196.57C331.346 197.487 331.492 198.88 331.492 200.75V210.65C331.492 213.217 332.061 215.105 333.197 216.315C334.371 217.488 335.819 218.075 337.542 218.075C339.486 218.075 341.319 217.103 343.042 215.16V194.15H347.992V220H345.242L343.317 217.8H343.042C342.272 218.57 341.264 219.23 340.017 219.78C338.807 220.293 337.432 220.55 335.892 220.55ZM356.746 200.75C356.746 198.88 356.489 197.505 355.976 196.625C355.463 195.708 354.436 195.25 352.896 195.25H351.796V194.15H356.746C358.103 194.15 359.129 194.333 359.826 194.7C360.559 195.067 361.091 195.617 361.421 196.35H361.696C362.466 195.58 363.456 194.938 364.666 194.425C365.913 193.875 367.306 193.6 368.846 193.6C370.386 193.6 371.706 193.893 372.806 194.48C373.906 195.03 374.786 196.02 375.446 197.45C376.399 196.24 377.609 195.305 379.076 194.645C380.579 193.948 382.119 193.6 383.696 193.6C386.043 193.6 387.913 194.333 389.306 195.8C390.699 197.267 391.396 199.833 391.396 203.5V220H386.446V203.5C386.446 200.86 386.079 198.972 385.346 197.835C384.613 196.662 383.513 196.075 382.046 196.075C381.019 196.075 379.938 196.46 378.801 197.23C377.664 197.963 376.821 198.77 376.271 199.65C376.454 200.2 376.546 201.483 376.546 203.5V220H371.596V203.5C371.596 200.86 371.229 198.972 370.496 197.835C369.763 196.662 368.663 196.075 367.196 196.075C365.253 196.075 363.419 197.047 361.696 198.99V220H356.746V200.75ZM414.725 190.3C414.725 188.43 414.468 187.055 413.955 186.175C413.441 185.258 412.415 184.8 410.875 184.8H409.775V183.7H424.075C428.071 183.7 431.536 184.36 434.47 185.68C437.44 187 438.925 189.548 438.925 193.325C438.925 195.048 438.338 196.607 437.165 198C435.991 199.393 434.195 200.493 431.775 201.3C435.148 201.85 437.495 202.858 438.815 204.325C440.171 205.755 440.85 207.68 440.85 210.1C440.85 213.803 439.383 216.388 436.45 217.855C433.553 219.285 429.978 220 425.725 220H414.725V190.3ZM424.9 200.475C426.403 200.475 427.815 200.2 429.135 199.65C430.491 199.063 431.591 198.22 432.435 197.12C433.278 195.983 433.7 194.627 433.7 193.05C433.7 191.4 433.205 190.025 432.215 188.925C431.225 187.788 429.96 186.963 428.42 186.45C426.916 185.9 425.376 185.625 423.8 185.625C422.516 185.625 421.141 185.808 419.675 186.175V200.475H424.9ZM424.9 218.075C428.236 218.075 430.803 217.415 432.6 216.095C434.433 214.775 435.35 212.868 435.35 210.375C435.35 207.882 434.451 205.975 432.655 204.655C430.895 203.335 428.31 202.675 424.9 202.675H419.675V217.305C421.435 217.818 423.176 218.075 424.9 218.075ZM457.683 220.55C455.19 220.55 453.027 219.963 451.193 218.79C449.36 217.58 447.967 215.948 447.013 213.895C446.06 211.842 445.583 209.568 445.583 207.075C445.583 204.582 446.06 202.308 447.013 200.255C447.967 198.202 449.36 196.588 451.193 195.415C453.027 194.205 455.19 193.6 457.683 193.6C460.177 193.6 462.34 194.205 464.173 195.415C466.007 196.588 467.4 198.202 468.353 200.255C469.307 202.308 469.783 204.582 469.783 207.075C469.783 209.568 469.307 211.842 468.353 213.895C467.4 215.948 466.007 217.58 464.173 218.79C462.34 219.963 460.177 220.55 457.683 220.55ZM457.683 218.35C459.04 218.35 460.232 217.855 461.258 216.865C462.322 215.875 463.128 214.518 463.678 212.795C464.265 211.072 464.558 209.165 464.558 207.075C464.558 204.985 464.265 203.078 463.678 201.355C463.128 199.632 462.322 198.275 461.258 197.285C460.232 196.295 459.04 195.8 457.683 195.8C456.327 195.8 455.117 196.295 454.053 197.285C453.027 198.275 452.22 199.632 451.633 201.355C451.083 203.078 450.808 204.985 450.808 207.075C450.808 209.165 451.083 211.072 451.633 212.795C452.22 214.518 453.027 215.875 454.053 216.865C455.117 217.855 456.327 218.35 457.683 218.35ZM486.848 220.55C484.355 220.55 482.192 219.963 480.358 218.79C478.525 217.58 477.132 215.948 476.178 213.895C475.225 211.842 474.748 209.568 474.748 207.075C474.748 204.582 475.225 202.308 476.178 200.255C477.132 198.202 478.525 196.588 480.358 195.415C482.192 194.205 484.355 193.6 486.848 193.6C489.342 193.6 491.505 194.205 493.338 195.415C495.172 196.588 496.565 198.202 497.518 200.255C498.472 202.308 498.948 204.582 498.948 207.075C498.948 209.568 498.472 211.842 497.518 213.895C496.565 215.948 495.172 217.58 493.338 218.79C491.505 219.963 489.342 220.55 486.848 220.55ZM486.848 218.35C488.205 218.35 489.397 217.855 490.423 216.865C491.487 215.875 492.293 214.518 492.843 212.795C493.43 211.072 493.723 209.165 493.723 207.075C493.723 204.985 493.43 203.078 492.843 201.355C492.293 199.632 491.487 198.275 490.423 197.285C489.397 196.295 488.205 195.8 486.848 195.8C485.492 195.8 484.282 196.295 483.218 197.285C482.192 198.275 481.385 199.632 480.798 201.355C480.248 203.078 479.973 204.985 479.973 207.075C479.973 209.165 480.248 211.072 480.798 212.795C481.385 214.518 482.192 215.875 483.218 216.865C484.282 217.855 485.492 218.35 486.848 218.35ZM524.923 220.55C521.807 220.55 519.148 219.083 516.948 216.15L510.348 207.35V220H505.398V190.3C505.398 188.43 505.142 187.055 504.628 186.175C504.115 185.258 503.088 184.8 501.548 184.8H500.448V183.7H505.398C506.755 183.7 507.763 183.883 508.423 184.25C509.12 184.58 509.615 185.203 509.908 186.12C510.202 187.037 510.348 188.43 510.348 190.3V206.525L517.223 197.725C518.177 196.552 519.185 195.672 520.248 195.085C521.312 194.462 522.687 194.15 524.373 194.15H526.023V195.525C525.033 195.525 524.08 195.727 523.163 196.13C522.247 196.533 521.458 197.157 520.798 198L514.748 205.7L521.623 214.5C522.687 215.893 523.677 216.938 524.593 217.635C525.547 218.332 526.573 218.772 527.673 218.955V220C526.867 220.367 525.95 220.55 524.923 220.55ZM540.728 220.55C536.511 220.55 533.669 219.817 532.203 218.35C531.579 217.727 531.194 217.03 531.048 216.26C530.901 215.453 530.828 214.225 530.828 212.575H531.928C532.258 214.408 533.046 215.838 534.293 216.865C535.576 217.855 537.354 218.35 539.628 218.35C541.644 218.35 543.148 218.002 544.138 217.305C545.164 216.608 545.678 215.673 545.678 214.5C545.678 213.437 545.274 212.52 544.468 211.75C543.698 210.98 542.451 210.247 540.728 209.55L537.428 208.175C535.228 207.295 533.578 206.268 532.478 205.095C531.378 203.922 530.828 202.473 530.828 200.75C530.828 198.513 531.671 196.772 533.358 195.525C535.044 194.242 537.226 193.6 539.903 193.6C543.936 193.6 546.686 194.333 548.153 195.8C548.776 196.423 549.161 197.12 549.308 197.89C549.454 198.66 549.528 199.888 549.528 201.575H548.428C548.134 199.742 547.364 198.33 546.118 197.34C544.871 196.313 543.166 195.8 541.003 195.8C539.279 195.8 537.923 196.167 536.933 196.9C535.979 197.597 535.503 198.513 535.503 199.65C535.503 201.557 536.969 203.115 539.903 204.325L543.203 205.7C545.696 206.727 547.511 207.827 548.648 209C549.784 210.137 550.353 211.603 550.353 213.4C550.353 215.637 549.454 217.397 547.658 218.68C545.861 219.927 543.551 220.55 540.728 220.55ZM564.284 220.55C562.23 220.55 560.617 219.963 559.444 218.79C558.27 217.617 557.684 215.82 557.684 213.4V196.35H553.834V194.15H557.684V189.2L560.434 185.9H562.634V194.15H569.234V196.35H562.634V213.4C562.634 216.7 563.917 218.35 566.484 218.35C567.364 218.35 568.097 218.258 568.684 218.075C569.307 217.892 569.949 217.617 570.609 217.25L571.159 218.35C570.315 218.973 569.38 219.505 568.354 219.945C567.327 220.348 565.97 220.55 564.284 220.55ZM585.838 220.55C583.344 220.55 581.181 219.963 579.348 218.79C577.514 217.58 576.121 215.948 575.168 213.895C574.214 211.842 573.738 209.568 573.738 207.075C573.738 204.582 574.214 202.308 575.168 200.255C576.121 198.202 577.514 196.588 579.348 195.415C581.181 194.205 583.344 193.6 585.838 193.6C588.331 193.6 590.494 194.205 592.328 195.415C594.161 196.588 595.554 198.202 596.508 200.255C597.461 202.308 597.938 204.582 597.938 207.075C597.938 209.568 597.461 211.842 596.508 213.895C595.554 215.948 594.161 217.58 592.328 218.79C590.494 219.963 588.331 220.55 585.838 220.55ZM585.838 218.35C587.194 218.35 588.386 217.855 589.413 216.865C590.476 215.875 591.283 214.518 591.833 212.795C592.419 211.072 592.713 209.165 592.713 207.075C592.713 204.985 592.419 203.078 591.833 201.355C591.283 199.632 590.476 198.275 589.413 197.285C588.386 196.295 587.194 195.8 585.838 195.8C584.481 195.8 583.271 196.295 582.208 197.285C581.181 198.275 580.374 199.632 579.788 201.355C579.238 203.078 578.963 204.985 578.963 207.075C578.963 209.165 579.238 211.072 579.788 212.795C580.374 214.518 581.181 215.875 582.208 216.865C583.271 217.855 584.481 218.35 585.838 218.35ZM604.828 200.75C604.828 198.88 604.571 197.505 604.058 196.625C603.544 195.708 602.518 195.25 600.978 195.25H600.428V194.15H604.828C606.221 194.15 607.266 194.352 607.963 194.755C608.696 195.122 609.209 195.745 609.503 196.625H609.778C610.438 195.782 611.318 195.067 612.418 194.48C613.554 193.893 614.874 193.6 616.378 193.6C617.844 193.6 618.944 193.875 619.678 194.425C620.301 194.902 620.943 195.727 621.603 196.9L619.403 198.55C618.999 198 618.413 197.597 617.643 197.34C616.873 197.047 615.993 196.9 615.003 196.9C613.903 196.9 612.894 197.157 611.978 197.67C611.061 198.147 610.328 198.807 609.778 199.65V220H604.828V200.75ZM635.83 220.55C633.336 220.55 631.228 219.963 629.505 218.79C627.781 217.58 626.48 215.967 625.6 213.95C624.72 211.897 624.28 209.605 624.28 207.075C624.28 204.582 624.72 202.308 625.6 200.255C626.48 198.202 627.745 196.588 629.395 195.415C631.081 194.205 633.043 193.6 635.28 193.6C638.983 193.6 641.733 194.645 643.53 196.735C645.363 198.788 646.28 201.777 646.28 205.7L646.17 207.9H629.505C629.505 210.98 630.165 213.492 631.485 215.435C632.805 217.378 634.62 218.35 636.93 218.35C638.653 218.35 640.101 217.983 641.275 217.25C642.485 216.517 643.603 215.417 644.63 213.95L645.73 214.775C644.52 216.792 643.108 218.258 641.495 219.175C639.881 220.092 637.993 220.55 635.83 220.55ZM641.055 205.7C641.055 202.473 640.578 200.017 639.625 198.33C638.671 196.643 637.223 195.8 635.28 195.8C634.18 195.8 633.19 196.24 632.31 197.12C631.43 197.963 630.733 199.137 630.22 200.64C629.743 202.143 629.505 203.83 629.505 205.7H641.055ZM674.015 220.55C671.962 220.55 670.348 219.963 669.175 218.79C668.002 217.617 667.415 215.82 667.415 213.4V196.35H663.565V194.15H667.415V189.2L670.165 185.9H672.365V194.15H678.965V196.35H672.365V213.4C672.365 216.7 673.648 218.35 676.215 218.35C677.095 218.35 677.828 218.258 678.415 218.075C679.038 217.892 679.68 217.617 680.34 217.25L680.89 218.35C680.047 218.973 679.112 219.505 678.085 219.945C677.058 220.348 675.702 220.55 674.015 220.55ZM684.954 190.3C684.954 188.43 684.697 187.055 684.184 186.175C683.671 185.258 682.644 184.8 681.104 184.8H680.004V183.7H684.954C686.311 183.7 687.319 183.883 687.979 184.25C688.676 184.58 689.171 185.203 689.464 186.12C689.757 187.037 689.904 188.43 689.904 190.3V196.35C690.674 195.58 691.664 194.938 692.874 194.425C694.121 193.875 695.514 193.6 697.054 193.6C699.804 193.6 702.041 194.333 703.764 195.8C705.524 197.267 706.404 199.833 706.404 203.5V220H701.454V203.5C701.454 200.933 700.867 199.063 699.694 197.89C698.557 196.68 697.127 196.075 695.404 196.075C693.461 196.075 691.627 197.047 689.904 198.99V220H684.954V190.3ZM724.13 220.55C721.637 220.55 719.529 219.963 717.805 218.79C716.082 217.58 714.78 215.967 713.9 213.95C713.02 211.897 712.58 209.605 712.58 207.075C712.58 204.582 713.02 202.308 713.9 200.255C714.78 198.202 716.045 196.588 717.695 195.415C719.382 194.205 721.344 193.6 723.58 193.6C727.284 193.6 730.034 194.645 731.83 196.735C733.664 198.788 734.58 201.777 734.58 205.7L734.47 207.9H717.805C717.805 210.98 718.465 213.492 719.785 215.435C721.105 217.378 722.92 218.35 725.23 218.35C726.954 218.35 728.402 217.983 729.575 217.25C730.785 216.517 731.904 215.417 732.93 213.95L734.03 214.775C732.82 216.792 731.409 218.258 729.795 219.175C728.182 220.092 726.294 220.55 724.13 220.55ZM729.355 205.7C729.355 202.473 728.879 200.017 727.925 198.33C726.972 196.643 725.524 195.8 723.58 195.8C722.48 195.8 721.49 196.24 720.61 197.12C719.73 197.963 719.034 199.137 718.52 200.64C718.044 202.143 717.805 203.83 717.805 205.7H729.355ZM741.746 200.75C741.746 198.88 741.489 197.505 740.976 196.625C740.463 195.708 739.436 195.25 737.896 195.25H736.796V194.15H741.746C743.103 194.15 744.129 194.333 744.826 194.7C745.559 195.067 746.091 195.617 746.421 196.35H746.696C747.466 195.58 748.456 194.938 749.666 194.425C750.913 193.875 752.306 193.6 753.846 193.6C755.386 193.6 756.706 193.893 757.806 194.48C758.906 195.03 759.786 196.02 760.446 197.45C761.399 196.24 762.609 195.305 764.076 194.645C765.579 193.948 767.119 193.6 768.696 193.6C771.043 193.6 772.913 194.333 774.306 195.8C775.699 197.267 776.396 199.833 776.396 203.5V220H771.446V203.5C771.446 200.86 771.079 198.972 770.346 197.835C769.613 196.662 768.513 196.075 767.046 196.075C766.019 196.075 764.938 196.46 763.801 197.23C762.664 197.963 761.821 198.77 761.271 199.65C761.454 200.2 761.546 201.483 761.546 203.5V220H756.596V203.5C756.596 200.86 756.229 198.972 755.496 197.835C754.763 196.662 753.663 196.075 752.196 196.075C750.253 196.075 748.419 197.047 746.696 198.99V220H741.746V200.75ZM794.17 220.55C791.676 220.55 789.568 219.963 787.845 218.79C786.121 217.58 784.82 215.967 783.94 213.95C783.06 211.897 782.62 209.605 782.62 207.075C782.62 204.582 783.06 202.308 783.94 200.255C784.82 198.202 786.085 196.588 787.735 195.415C789.421 194.205 791.383 193.6 793.62 193.6C797.323 193.6 800.073 194.645 801.87 196.735C803.703 198.788 804.62 201.777 804.62 205.7L804.51 207.9H787.845C787.845 210.98 788.505 213.492 789.825 215.435C791.145 217.378 792.96 218.35 795.27 218.35C796.993 218.35 798.441 217.983 799.615 217.25C800.825 216.517 801.943 215.417 802.97 213.95L804.07 214.775C802.86 216.792 801.448 218.258 799.835 219.175C798.221 220.092 796.333 220.55 794.17 220.55ZM799.395 205.7C799.395 202.473 798.918 200.017 797.965 198.33C797.011 196.643 795.563 195.8 793.62 195.8C792.52 195.8 791.53 196.24 790.65 197.12C789.77 197.963 789.073 199.137 788.56 200.64C788.083 202.143 787.845 203.83 787.845 205.7H799.395Z" fill="#161049"/>
<rect x="6" y="75" width="64" height="78" fill="#E16F6F" fill-opacity="0.86"/>
<rect x="35" y="93" width="64" height="78" fill="#5876E1" fill-opacity="0.67"/>
</g>
<defs>
<clipPath id="clip0_0_1">
<rect width="814" height="277" fill="white"/>
</clipPath>
</defs>
</svg>
